<?xml version="1.0" encoding="utf-8"?>
<!-- Generator: Adobe Illustrator 19.2.1, SVG Export Plug-In . SVG Version: 6.00 Build 0)  -->
<svg version="1.1" id="Layer_1" xmlns="http://www.w3.org/2000/svg" xmlns:xlink="http://www.w3.org/1999/xlink" x="0px" y="0px"
	 viewBox="0 0 146.9 149" style="enable-background:new 0 0 146.9 149;" xml:space="preserve">
<style type="text/css">
	.st0{fill:#F9C900;stroke:#231F20;stroke-width:2;stroke-miterlimit:10;}
	.st1{fill:#231F20;}
	.st2{clip-path:url(#SVGID_2_);}
	.st3{fill:#FFFFFF;stroke:#231F20;stroke-width:2;stroke-miterlimit:10;}
	.st4{fill:none;stroke:#231F20;stroke-width:2;stroke-miterlimit:10;}
	.st5{fill:none;stroke:#231F20;stroke-miterlimit:10;}
	.st6{fill:#FFFFFF;}
	.st7{fill:#FFFFFF;stroke:#231F20;stroke-miterlimit:10;}
	.st8{fill:none;stroke:#231F20;stroke-width:2;stroke-linecap:round;stroke-linejoin:round;}
	.st9{clip-path:url(#SVGID_4_);fill:#231F20;}
</style>
<rect class="st0" width="146.9" height="149"/>
<title>logo</title>
<circle class="st1" cx="73.4" cy="75.6" r="72.4"/>
<g>
	<defs>
		<circle id="SVGID_1_" cx="73.4" cy="75.6" r="72.4"/>
	</defs>
	<clipPath id="SVGID_2_">
		<use xlink:href="#SVGID_1_"  style="overflow:visible;"/>
	</clipPath>
	<g class="st2">
		<path class="st3" d="M7.1,46.4c0,0,43.5-27.1,81.5-3.6c35.4,21.9,46.6-5,46.6-5S113.4,1,73.4,1S7.1,29.2,7.1,46.4z"/>
	</g>
</g>
<circle class="st4" cx="73.4" cy="75.6" r="72.4"/>
<path class="st5" d="M67.3,34.5"/>
<circle class="st3" cx="116.8" cy="39.7" r="3.4"/>
<path class="st6" d="M30.5,83.9H19.2l-1.6,4.4h-5.9l9.8-25.3h6.8L38,88.2h-5.9L30.5,83.9z M20.6,79.2H29l-4.2-11.6L20.6,79.2z"/>
<path class="st6" d="M40.3,62.9h5.4v20.6h10.7v4.8H40.3V62.9z"/>
<path class="st6" d="M58,75.6c0-7.8,5.9-13.1,13.3-13.1c4.5-0.2,8.7,2.2,10.8,6.2L77.5,71c-1.2-2.3-3.6-3.7-6.2-3.7
	c-4.4,0-7.8,3.5-7.8,8.3s3.3,8.3,7.8,8.3c2.6,0,5-1.4,6.2-3.7l4.6,2.2c-2.1,4-6.3,6.4-10.8,6.2C63.9,88.7,58,83.4,58,75.6z"/>
<path class="st6" d="M102.6,77.6h-12v10.6h-5.4V62.9h5.4v10h12v-10h5.5v25.3h-5.4L102.6,77.6L102.6,77.6z"/>
<path class="st6" d="M120.1,77.9l-9.8-15h6.2l6.3,10.2l6.3-10.1h6.2l-9.7,15v10.4h-5.5V77.9z"/>
<circle class="st7" cx="52.4" cy="50.8" r="4.6"/>
<circle class="st7" cx="108.1" cy="122.1" r="5.3"/>
<circle class="st7" cx="43.7" cy="43.4" r="3"/>
<circle class="st7" cx="53.5" cy="116.7" r="2.9"/>
<line class="st8" x1="76.6" y1="18.2" x2="78.4" y2="20"/>
<line class="st8" x1="86.6" y1="18.2" x2="84.8" y2="20"/>
<line class="st8" x1="81.6" y1="16.6" x2="81.6" y2="19.1"/>
<line class="st8" x1="86.6" y1="28.6" x2="84.8" y2="26.8"/>
<line class="st8" x1="76.6" y1="28.6" x2="78.4" y2="26.8"/>
<line class="st8" x1="75" y1="23.4" x2="77.5" y2="23.4"/>
<line class="st8" x1="86.6" y1="23.4" x2="89.1" y2="23.4"/>
<line class="st8" x1="81.6" y1="30.2" x2="81.6" y2="27.7"/>
<g>
	<defs>
		<path id="SVGID_3_" d="M-128.3,28.6c0,0,43.7-19.3,81.7,0.4c0,0,19.7,7.4,38.7-4.4L-33.3-9L-73-17.3L-83.3-15l-36,29.7
			L-128.3,28.6z"/>
	</defs>
	<clipPath id="SVGID_4_">
		<use xlink:href="#SVGID_3_"  style="overflow:visible;"/>
	</clipPath>
	<circle class="st9" cx="-65.7" cy="58.6" r="61"/>
</g>
</svg>
