<svg id="Layer_1" data-name="Layer 1" xmlns="http://www.w3.org/2000/svg" xmlns:xlink="http://www.w3.org/1999/xlink" viewBox="0 0 482.83 149.04"><defs><style>.cls-1,.cls-5,.cls-6,.cls-9{fill:none;}.cls-2{fill:#231f20;}.cls-3{clip-path:url(#clip-path);}.cls-4,.cls-7,.cls-8{fill:#fff;}.cls-4,.cls-5,.cls-6,.cls-8,.cls-9{stroke:#231f20;}.cls-4,.cls-5,.cls-6,.cls-8{stroke-miterlimit:10;}.cls-4,.cls-5,.cls-9{stroke-width:2px;}.cls-9{stroke-linecap:round;stroke-linejoin:round;}</style><clipPath id="clip-path" transform="translate(168.08 0.02)"><circle class="cls-1" cx="73.43" cy="75.59" r="72.43"/></clipPath></defs><title>logo-tagline</title><circle class="cls-2" cx="241.51" cy="75.61" r="72.43"/><g class="cls-3"><path class="cls-4" d="M7.1,46.35s43.52-27.07,81.46-3.59c35.37,21.89,46.61-5,46.61-5S113.39,1,73.39,1,7.1,29.22,7.1,46.35Z" transform="translate(168.08 0.02)"/></g><circle class="cls-5" cx="241.51" cy="75.61" r="72.43"/><path class="cls-6" d="M67.32,34.45" transform="translate(168.08 0.02)"/><circle class="cls-4" cx="284.91" cy="39.75" r="3.39"/><path class="cls-7" d="M30.49,83.87H19.17l-1.6,4.37H11.64l9.8-25.34H28.2L38,88.24H32.1ZM20.61,79.2H29L24.83,67.57Z" transform="translate(168.08 0.02)"/><path class="cls-7" d="M40.33,62.9h5.4V83.49H56.44v4.75H40.33V62.9Z" transform="translate(168.08 0.02)"/><path class="cls-7" d="M58,75.59c0-7.79,5.89-13.11,13.3-13.11A11.69,11.69,0,0,1,82.1,68.67L77.46,71a6.94,6.94,0,0,0-6.16-3.69c-4.41,0-7.75,3.53-7.75,8.32s3.34,8.32,7.75,8.32a6.87,6.87,0,0,0,6.16-3.69l4.64,2.24a11.76,11.76,0,0,1-10.79,6.23C63.85,88.69,58,83.35,58,75.59Z" transform="translate(168.08 0.02)"/><path class="cls-7" d="M102.65,77.6h-12V88.24h-5.4V62.9h5.4v10h12v-10h5.45V88.24h-5.43V77.6h0Z" transform="translate(168.08 0.02)"/><path class="cls-7" d="M120.1,77.87l-9.77-15h6.16L122.8,73l6.3-10.15h6.16l-9.69,15V88.27H120.1V77.87Z" transform="translate(168.08 0.02)"/><circle class="cls-8" cx="220.45" cy="50.84" r="4.59"/><circle class="cls-8" cx="276.18" cy="122.08" r="5.34"/><circle class="cls-8" cx="211.76" cy="43.43" r="3.05"/><circle class="cls-8" cx="221.62" cy="116.74" r="2.9"/><line class="cls-9" x1="244.71" y1="18.25" x2="246.53" y2="20.06"/><line class="cls-9" x1="254.65" y1="18.25" x2="252.83" y2="20.06"/><line class="cls-9" x1="249.68" y1="16.59" x2="249.68" y2="19.16"/><line class="cls-9" x1="254.65" y1="28.61" x2="252.83" y2="26.79"/><line class="cls-9" x1="244.71" y1="28.61" x2="246.53" y2="26.79"/><line class="cls-9" x1="243.05" y1="23.43" x2="245.62" y2="23.43"/><line class="cls-9" x1="254.65" y1="23.43" x2="257.21" y2="23.43"/><line class="cls-9" x1="249.68" y1="30.27" x2="249.68" y2="27.7"/><path class="cls-7" d="M-162.25,76.36h-3.59v7.15h-2.24v-18h7.23c3.29,0,5.64,2.11,5.64,5.43a5,5,0,0,1-4.67,5.24l4.86,7.34h-2.65Zm1.13-8.85h-4.72v6.88h4.72a3.37,3.37,0,0,0,3.59-3.45A3.35,3.35,0,0,0-161.11,67.51Z" transform="translate(168.08 0.02)"/><path class="cls-7" d="M-148.93,65.51h11.8v2h-9.56v5.8h9.37v2h-9.37v6.21h9.56v2h-11.8v-18Z" transform="translate(168.08 0.02)"/><path class="cls-7" d="M-115.46,68.53l-6.13,15h-0.92l-6.1-15v15h-2.24v-18h3.21L-122,79.22l5.61-13.71h3.21v18h-2.24v-15Z" transform="translate(168.08 0.02)"/><path class="cls-7" d="M-106.27,65.51h11.8v2H-104v5.8h9.37v2H-104v6.21h9.56v2h-11.8v-18Z" transform="translate(168.08 0.02)"/><path class="cls-7" d="M-72.8,68.53l-6.13,15h-0.92l-6.1-15v15h-2.24v-18H-85l5.59,13.71,5.61-13.71h3.21v18H-72.8v-15Z" transform="translate(168.08 0.02)"/><path class="cls-7" d="M-63.61,65.51h8c3.13,0,5,1.89,5,4.59a4.09,4.09,0,0,1-3.16,4.13,4.49,4.49,0,0,1,3.51,4.43c0,2.89-1.92,4.86-5.21,4.86h-8.21v-18Zm7.64,7.8a2.8,2.8,0,0,0,3.1-2.89A2.83,2.83,0,0,0-56,67.51h-5.4v5.8H-56Zm0.11,8.21c2.11,0,3.35-1.19,3.35-3.1a3.06,3.06,0,0,0-3.35-3.1h-5.51v6.21h5.51Z" transform="translate(168.08 0.02)"/><path class="cls-7" d="M-43.9,65.51h11.8v2h-9.56v5.8h9.37v2h-9.37v6.21h9.56v2H-43.9v-18Z" transform="translate(168.08 0.02)"/><path class="cls-7" d="M-20,76.36h-3.59v7.15h-2.24v-18h7.23c3.29,0,5.64,2.11,5.64,5.43a5,5,0,0,1-4.67,5.24l4.86,7.34H-15.4Zm1.13-8.85h-4.72v6.88h4.72a3.37,3.37,0,0,0,3.59-3.45A3.35,3.35,0,0,0-18.85,67.51Z" transform="translate(168.08 0.02)"/><path class="cls-7" d="M165.15,75.89L158,65.49h2.62l5.59,8.37,5.59-8.37h2.62l-7.07,10.39V83.5h-2.24V75.89Z" transform="translate(168.08 0.02)"/><path class="cls-7" d="M182.59,65.2c5.32,0,8.93,4,8.93,9.31s-3.62,9.31-8.93,9.31-8.93-4-8.93-9.31S177.25,65.2,182.59,65.2Zm0,2c-4,0-6.61,3.1-6.61,7.32s2.56,7.31,6.61,7.31,6.61-3.13,6.61-7.31S186.61,67.19,182.59,67.19Z" transform="translate(168.08 0.02)"/><path class="cls-7" d="M193.69,65.49h2.24v11c0,3.29,1.78,5.37,5.1,5.37s5.1-2.08,5.1-5.37v-11h2.24v11c0,4.48-2.46,7.34-7.34,7.34s-7.34-2.89-7.34-7.32v-11Z" transform="translate(168.08 0.02)"/><path class="cls-7" d="M217.07,76.35h-3.59V83.5h-2.24v-18h7.23c3.29,0,5.64,2.11,5.64,5.43a5,5,0,0,1-4.67,5.24l4.86,7.34h-2.65Zm1.13-8.85h-4.72v6.88h4.72A3.44,3.44,0,1,0,218.2,67.49Z" transform="translate(168.08 0.02)"/><path class="cls-7" d="M231.92,65.49h6.15c5.59,0,9.23,3.91,9.23,9s-3.64,9-9.23,9h-6.15v-18Zm6.15,16a6.62,6.62,0,0,0,6.91-7c0-3.89-2.46-7-6.91-7h-3.91v14h3.91Z" transform="translate(168.08 0.02)"/><path class="cls-7" d="M255.3,76.35h-3.59V83.5h-2.24v-18h7.23c3.29,0,5.64,2.11,5.64,5.43a5,5,0,0,1-4.67,5.24l4.86,7.34h-2.65Zm1.13-8.85h-4.72v6.88h4.72A3.44,3.44,0,1,0,256.43,67.49Z" transform="translate(168.08 0.02)"/><path class="cls-7" d="M264.54,65.49h2.24v18h-2.24v-18Z" transform="translate(168.08 0.02)"/><path class="cls-7" d="M271.88,69V83.5h-2.24v-18h2.29L282.3,79.72V65.49h2.24v18h-2.16Z" transform="translate(168.08 0.02)"/><path class="cls-7" d="M291.45,75.4l-1.81,2.05v6h-2.24v-18h2.24v9.31l8-9.31h2.81l-7.5,8.56,8.15,9.45h-2.78Z" transform="translate(168.08 0.02)"/><path class="cls-7" d="M302.52,79.26a7.61,7.61,0,0,0,5.67,2.56c3.21,0,4.24-1.73,4.24-3.1,0-2.16-2.19-2.75-4.56-3.4-2.89-.76-6.1-1.57-6.1-5.1,0-3,2.65-5,6.18-5a8.46,8.46,0,0,1,6.4,2.51L313,69.38a6.89,6.89,0,0,0-5.21-2.16c-2.16,0-3.7,1.16-3.7,2.86s2.08,2.35,4.37,3c2.94,0.78,6.29,1.7,6.29,5.48,0,2.62-1.78,5.29-6.64,5.29A8.92,8.92,0,0,1,301.2,81Z" transform="translate(168.08 0.02)"/></svg>